<svg width="118" height="68" viewBox="0 0 118 68" fill="none" xmlns="http://www.w3.org/2000/svg">
<path d="M26.7273 67.3511C26.6555 67.6053 26.4982 67.7836 26.2551 67.8859C25.9967 67.9585 25.714 67.9485 25.407 67.856L19.9007 66.1218C17.2451 65.2464 15.1827 64.5874 13.7135 64.1448C8.60425 62.6054 4.60528 61.7265 1.71659 61.5081C1.3101 61.0095 1.10501 60.7669 0.75401 60.1041C0.40301 59.4414 0.342119 57.752 1.27276 56.3614C2.20341 54.9708 3.87733 54.3057 4.62178 54.0285C6.14803 53.5104 8.78781 54.1697 10.3666 54.6454C12.0112 55.1409 13.1972 56.0552 13.616 56.9112C14.0347 57.7672 14.3421 58.568 14.4563 59.2195C14.5704 59.871 15.3644 61.7211 13.8024 62.5919C14.5342 62.8123 14.6291 62.841 15.361 62.9863L18.7027 63.9179L20.4655 64.3738C20.8449 64.463 21.3854 64.6133 22.087 64.8247C23.5758 65.198 24.7807 65.5234 25.7016 65.8009C26.1183 65.9264 26.4211 66.118 26.6101 66.3755C26.7991 66.6331 26.8382 66.9583 26.7273 67.3511ZM13.7627 62.5799C13.6573 62.3632 13.5484 62.1549 13.4358 61.9548C13.3111 61.7333 13.0535 61.1857 12.9199 60.9846C12.8449 60.8717 13.0814 58.8883 13.0036 58.7819C13.0036 58.7819 12.6476 60.763 12.5593 60.6544C12.4286 60.4937 12.2943 60.3414 12.1563 60.1976C12.0362 60.0723 11.371 58.847 11.6608 57.8203C11.1649 57.6709 11.5703 59.6484 11.4567 59.5574C9.94068 58.5868 10.0282 57.8854 9.82208 56.7093C9.32617 56.5599 9.9743 58.6329 9.45201 58.4395C9.28794 58.3788 9.11979 58.3225 8.94758 58.2706C8.94758 58.2706 8.04453 57.2877 8.47926 55.7477C7.98335 55.5983 8.3665 58.0955 7.97582 58.0319C7.66836 57.9705 7.13396 58.0692 6.76288 58.0156C6.48017 58.0056 6.20579 56.1767 5.70988 56.0273C6.26697 57.8661 6.03949 57.7579 5.51241 58.1759C4.98533 58.594 4.98533 58.594 4.98533 58.594C4.13841 57.7818 3.93232 56.6057 3.43641 56.4563C3.93232 56.6057 4.26817 59.0351 4.1307 59.1513L3.25133 59.8643C4.36966 60.2012 6.12155 60.6538 8.50699 61.2221L13.7627 62.5799Z" fill="#FEFEFF"/>
<path d="M85.9054 41.8697C85.9549 41.642 84.9044 42.9271 84.6707 42.9953C84.5497 42.8536 84.1717 42.038 84.0668 41.6295C83.9619 41.221 83.9067 41.0025 83.9941 40.6874C84.4616 40.2612 85.0695 40.1073 85.4641 39.937C85.8451 40.2629 87.0184 41.6111 87.4282 42.2363C87.1273 41.0078 85.4071 40.0037 85.6557 39.7624C85.7818 39.7071 85.7922 39.4519 85.9294 39.3268C86.7203 39.11 88.4502 37.7849 88.7619 37.5007C89.858 36.5014 89.4237 36.9761 90.5489 36.0465C91.6759 35.0833 92.4962 34.3676 93.01 33.8991C94.0564 32.592 95.9171 30.6868 98.5923 28.1837C99.2259 27.606 99.732 27.1285 100.11 26.7514C99.3242 25.8309 98.7709 25.1475 98.4505 24.7011L98.3118 24.5386C98.0805 24.2679 97.8202 24.2485 97.5307 24.4802L95.658 26.1395C94.7674 26.9514 94.251 27.4703 94.1089 27.6962C93.9342 27.9197 93.8126 28.0627 93.7441 28.1251C93.6071 28.25 93.3862 28.4194 93.0813 28.6331C92.7765 28.8468 92.5555 29.0161 92.4185 29.141C92.1616 29.3753 91.9775 29.6234 91.8662 29.8854C91.7738 30.0981 91.5828 30.3203 91.2934 30.5521C91.0194 30.8019 90.8138 30.9893 90.6768 31.1142C90.1613 31.6163 89.5124 32.24 88.454 33.1408C87.6011 33.8542 87.1139 34.4654 86.72 34.8245C86.2233 35.2774 85.9684 35.9444 85.8312 36.0694C85.694 36.1945 84.9851 37.2824 84.8226 37.7453C84.4562 37.8878 84.3812 38.2083 84.2738 38.2456C84.1665 38.2829 84.2011 37.3035 82.3207 36.2448C83.7516 37.5334 84.1528 38.1039 84.1366 38.3707C83.9994 38.4958 83.3362 39.6183 83.1888 39.6242C83.0503 39.6317 82.2528 39.5134 82.1272 39.4464C82.0569 39.4088 81.3686 39.1296 81.2475 38.9879C81.1265 38.8462 82.0868 37.9707 82.2735 37.6179C81.9818 37.5621 81.1265 38.8462 81.0054 38.7044C80.8844 38.5627 80.5932 37.981 80.5373 37.8707C80.4499 37.6614 80.3326 37.2314 80.3274 37.0537C80.3222 36.8759 80.4418 36.476 80.4968 36.395C80.5612 36.3004 81.7115 35.7441 82.007 35.592C82.3026 35.4398 82.2763 35.3464 82.5223 35.0525C83.2523 34.8912 84.3069 33.9993 84.3069 33.9993L86.6391 31.8731C88.4579 30.1507 89.8382 29.1338 90.7459 28.3063L92.8036 26.3821C93.7644 25.4741 94.762 24.4843 95.7964 23.4128L96.8034 22.3984L96.9575 22.2578C97.1288 22.1017 97.2795 22.0285 97.4097 22.0382C97.557 22.0324 97.7411 22.1053 97.9621 22.257C98.3561 22.5399 98.6764 22.8257 98.9231 23.1145C99.0619 23.2769 99.1535 23.4021 99.198 23.4899C99.3214 23.6343 99.4893 23.8665 99.7017 24.1865C100.007 24.6148 100.259 24.9462 100.46 25.1809C100.753 25.5238 101.057 25.8084 101.372 26.0348C101.593 26.1865 101.766 26.4782 101.891 26.9099C102.033 27.326 102 27.6615 101.791 27.9162C101.582 28.1709 101.409 28.3607 101.272 28.4856C101.135 28.6105 101.025 28.6951 100.941 28.7396C100.673 28.8547 100.394 29.045 100.103 29.3105C99.949 29.451 99.7854 29.6162 99.6124 29.806C99.4395 29.9958 99.2502 30.1844 99.0447 30.3717C98.8734 30.5279 98.7287 30.6438 98.6105 30.7194C98.441 30.8419 98.1849 31.0593 97.8424 31.3715C97.2772 31.8868 96.5271 32.667 95.592 33.7121L94.9678 34.4257C94.8291 34.5843 94.6056 34.8041 94.2973 35.0852C93.9377 35.4131 93.6645 35.6461 93.4778 35.7842C93.3408 35.9091 93.1619 36.0562 92.9409 36.2255C92.7525 36.3973 92.529 36.6171 92.2704 36.885C91.8611 37.226 91.278 37.7738 90.521 38.5281C90.521 38.5281 91.2136 37.8559 89.9789 39.0704C88.7443 40.285 88.2762 42.0533 88.0069 42.1713C87.7376 42.2893 87.5128 42.5213 87.3467 42.7732C87.1805 43.025 86.9351 43.6036 86.6672 43.6962C86.3992 43.7887 85.8768 43.6131 85.7617 43.6137C85.6552 43.6157 84.8081 43.3303 84.7918 43.1371C84.7755 42.9439 85.8558 42.0974 85.9054 41.8697Z" fill="#FEFEFF"/>
<path d="M31.1029 54.9735C30.8699 55.4988 30.4886 55.905 29.959 56.1921C29.449 56.4885 28.8574 56.6485 28.1844 56.6721C26.7316 56.6933 25.2699 56.4413 23.7991 55.9162C22.3887 55.4685 21.0675 54.9531 19.8354 54.3698C19.6008 54.2587 19.4097 54.1561 19.2622 54.0618L18.7342 53.8118C18.6364 53.7656 18.583 53.7525 18.5741 53.7727L18.0461 53.5228L16.0061 52.5204C15.3893 52.204 14.4278 51.651 13.1216 50.8616C12.2277 50.3162 11.4215 49.6534 10.7027 48.8731C10.3743 48.5465 10.1616 48.2259 10.0647 47.911C9.94812 47.587 9.95257 47.2835 10.078 47.0007C10.4365 46.1925 10.9057 45.5346 11.4858 45.027C12.0463 44.5101 12.6794 44.1498 13.385 43.946C14.0531 43.7734 14.8117 43.7169 15.6607 43.7766C16.4902 43.827 17.3327 43.9814 18.1882 44.2397C19.0633 44.5073 19.9605 44.8587 20.8796 45.2938L21.1142 45.4049C21.7205 45.6918 22.2725 45.941 22.7704 46.1522L24.4558 46.9134C30.0879 49.5796 32.3036 52.2663 31.1029 54.9735ZM29.8171 54.5115C29.9784 54.1479 29.9893 53.7497 29.85 53.3171C29.691 52.8752 29.403 52.4577 28.9858 52.0646C28.1587 51.2086 27.1861 50.4671 26.0682 49.8401C25.1156 49.2669 24.2776 48.8091 23.554 48.4666C22.674 48.05 21.4888 47.5745 19.9985 47.0401C18.439 46.4485 17.2876 45.9768 16.5445 45.625L16.0165 45.3751C15.2554 45.0637 14.4936 45.0208 13.731 45.2465C12.9773 45.452 12.4482 45.8981 12.1435 46.5851C11.8388 47.272 12.0185 47.9071 12.6826 48.4903C13.1993 48.9794 13.9367 49.4507 14.8949 49.9043C15.2665 50.0802 15.5839 50.2182 15.8471 50.3184L16.6391 50.6933L17.9615 51.3927C18.3543 51.6275 18.7951 51.8606 19.284 52.0921C20.34 52.592 21.3997 53.0569 22.4631 53.487C23.9656 54.1005 25.4828 54.5743 27.0146 54.9083C28.6051 55.2701 29.5393 55.1378 29.8171 54.5115Z" fill="#FEFEFF"/>
<path d="M33.6299 49.4355C33.5482 49.3998 33.4021 49.3418 33.1914 49.2614C32.9936 49.1633 32.841 49.0586 32.7336 48.9474C30.7656 47.3619 29.3175 46.1529 28.3895 45.3202C28.0415 45.0219 27.5151 44.5988 26.8103 44.051C25.5383 43.0622 23.9547 41.9285 22.0593 40.6499C19.7815 39.0462 18.0754 37.8034 16.9409 36.9216C16.6831 36.7211 16.5286 36.4342 16.4775 36.0608C16.4265 35.6873 16.5109 35.3497 16.7307 35.0478C17.4679 34.0356 18.1855 33.2167 18.8834 32.5911C19.2108 32.2894 19.4992 32.152 19.7487 32.1791C19.981 32.1928 20.2733 32.3644 20.6256 32.6939C20.5993 33.0627 20.4891 33.3804 20.2951 33.6467C20.2304 33.7355 20.1162 33.8553 19.9525 34.0062C19.8017 34.1393 19.457 34.5388 18.9182 35.2046L18.8794 35.2579C18.6983 35.5065 18.7367 35.731 18.9945 35.9314C21.4223 37.9576 22.808 39.1044 23.1518 39.3716C24.9653 40.7257 26.3405 41.739 27.2774 42.4116C27.3977 42.5052 27.5503 42.6099 27.7351 42.7257C27.92 42.8416 28.0661 42.9552 28.1735 43.0664C28.9254 43.7343 29.7396 44.409 30.6163 45.0904C32.0429 46.1994 33.0593 46.9478 33.6653 47.3354C34.0306 47.6471 34.2431 47.9097 34.303 48.1231C34.3801 48.3499 34.3152 48.6054 34.1083 48.8895C34.0566 48.9606 33.8971 49.1426 33.6299 49.4355Z" fill="#FEFEFF"/>
<path d="M41.68 40.6345C41.3121 40.9763 40.9899 41.1711 40.7132 41.2188C40.4366 41.2666 40.1617 41.1335 39.8884 40.8195C39.4569 40.3238 38.6434 39.5553 37.4478 38.5141L36.8988 38.0827L34.1998 39.9175C34.4347 40.3867 34.9675 41.2815 35.7984 42.6017C36.4072 43.5006 36.7227 44.1788 36.7449 44.6364C36.7624 44.8891 36.6671 45.112 36.4592 45.3052C36.2673 45.4835 36.041 45.5891 35.7803 45.6221C35.5053 45.6385 35.2887 45.5558 35.1305 45.374L35.0706 45.2055L35.0083 45.084C32.3675 39.8564 29.5211 34.9243 26.4692 30.2878C26.4117 30.2217 26.3262 30.1069 26.2127 29.9433C26.0849 29.7632 25.8995 29.517 25.6566 29.2047C25.1724 28.5487 24.7961 28.0166 24.5277 27.6085C24.2752 27.1855 24.1339 26.8237 24.1036 26.523L24.9194 25.7652C25.1433 25.5572 25.3856 25.4367 25.6462 25.4038C25.8925 25.3543 26.1019 25.4288 26.2745 25.6271C27.3676 26.883 29.1609 28.5943 31.6543 30.761C34.1892 33.0086 35.9025 34.6448 36.7943 35.6693C36.8806 35.7685 37.1435 35.9875 37.5831 36.3263C37.9939 36.6321 38.2496 36.8428 38.3503 36.9585C38.451 37.0741 38.9624 37.4956 39.8847 38.2228C40.719 38.8823 41.2369 39.3277 41.4383 39.5591L41.4598 39.5838C41.7763 39.9474 41.8497 40.2976 41.68 40.6345ZM35.9541 37.3464C35.6904 37.1431 35.4003 36.8597 35.0839 36.4961C33.7894 35.0089 32.0074 33.2274 29.7378 31.1516L27.2541 28.7966C29.9463 33.3189 32.0275 36.6905 33.4975 38.9112C33.8813 38.8536 34.7002 38.332 35.9541 37.3464Z" fill="#FEFEFF"/>
<path d="M47.9193 36.2567C47.6267 36.2547 47.4299 36.1186 47.3288 35.8483L47.1895 35.3695C46.8882 34.4884 46.4569 33.1604 45.8956 31.3854C45.3611 29.8574 44.9629 28.6815 44.7008 27.8579C44.2613 26.5788 43.6226 24.6539 42.7848 22.083C42.6341 21.6424 42.434 21.0316 42.1843 20.2505C41.9345 19.4695 41.7509 18.8768 41.6332 18.4724C41.5445 18.2447 41.4382 17.918 41.3144 17.4923C41.172 17.0028 41.0873 16.6346 41.0604 16.3877C40.9508 15.7024 41.2113 15.285 41.8417 15.1357C42.4185 14.9566 42.8266 15.2011 43.0659 15.8694L43.1774 16.2525L45.4871 24.3069L47.1496 30.0214C47.2363 30.3193 47.3591 30.6641 47.5179 31.0557C47.6706 31.426 47.782 31.693 47.8521 31.8569C47.7756 31.2077 47.7577 30.5287 47.7986 29.8199C47.8538 29.0833 47.8907 28.631 47.9091 28.4628C47.9952 27.6007 48.0392 26.9025 48.041 26.3682C48.0586 24.5759 48.1121 22.3664 48.2014 19.7396C48.2238 19.1989 48.2358 18.5454 48.2375 17.7791C48.2674 15.7974 48.3079 14.5085 48.3591 13.9124C48.3959 13.3441 48.5811 12.9385 48.9148 12.6956C49.0816 12.5742 49.2577 12.4847 49.4432 12.4271C49.7316 12.3376 50.0581 12.3406 50.4229 12.4362L50.8687 13.9685C51.3331 15.5647 51.8439 17.2046 52.4011 18.888C52.5269 19.2434 52.6951 19.7829 52.9057 20.5065L53.175 21.4323C53.2307 21.6239 53.2947 21.8825 53.367 22.2081C53.4599 22.5273 53.5786 22.8966 53.723 23.3159L56.3235 31.9066C56.4164 32.2258 56.4464 32.5994 56.4137 33.0272C56.4014 33.2167 56.3387 33.387 56.2254 33.5382C56.106 33.6681 55.9639 33.7587 55.799 33.8098C55.2222 33.989 54.8533 33.8018 54.6923 33.2485C54.5066 32.61 54.3579 31.9832 54.2463 31.3681C54.0522 30.5466 53.8933 29.923 53.7694 29.4973C52.5022 25.2961 51.5343 22.1623 50.8657 20.0958C50.7728 19.7765 50.5799 19.2679 50.2869 18.5699L49.8599 17.4494C49.7364 17.7198 49.6736 17.8901 49.6716 17.9603L49.6323 19.6782C49.6247 20.8872 49.6055 21.7866 49.5749 22.3762L49.1343 30.9366L48.8862 35.2951C48.8514 35.7932 48.6692 36.0935 48.3396 36.1958C48.2778 36.215 48.1377 36.2353 47.9193 36.2567Z" fill="#FEFEFF"/>
<path d="M65.6697 33.5932C65.5886 33.5562 65.4544 33.5098 65.2673 33.4539C65.0802 33.3981 64.9303 33.315 64.8177 33.2048C64.5362 32.9292 64.4711 32.5342 64.6224 32.0199L64.7747 31.3029C65.0566 30.1353 65.2469 29.2559 65.3455 28.6646C65.9188 25.2261 66.4639 21.7601 66.9809 18.2666C67.2803 16.4707 67.545 14.5559 67.775 12.5222C67.8122 12.168 67.9357 11.8855 68.1454 11.6748C68.3764 11.4678 68.6297 11.3889 68.9053 11.4379C69.1596 11.4832 69.3939 11.6489 69.6082 11.9351C69.8436 12.225 69.9233 12.5324 69.8473 12.8571C69.5894 13.4877 69.2961 14.7886 68.9675 16.7597L68.5293 19.3878C68.449 19.8696 68.3424 20.6399 68.2095 21.6987C68.2877 21.6224 68.5566 21.2531 69.0163 20.5907C69.0733 20.5106 69.1694 20.3924 69.3046 20.2361C69.4435 20.0578 69.5506 19.8739 69.6258 19.6844C70.6905 17.6188 71.5441 16.0343 72.1864 14.9308C72.4831 14.3297 72.827 13.8384 73.218 13.4569C73.6126 13.0536 74.1002 12.8134 74.6806 12.7362C74.8823 12.7045 75.133 12.7717 75.4328 12.9378C75.7537 13.1076 75.9544 13.2786 76.0348 13.4508C76.1364 13.6267 76.169 13.8242 76.1325 14.0432C76.096 14.2622 75.9889 14.4461 75.8113 14.5949C75.6549 14.7475 75.467 14.8268 75.2478 14.8329C74.7032 14.8262 74.2569 14.9498 73.909 15.2036C73.5611 15.4573 73.2838 15.7463 73.0769 16.0703C72.895 16.3761 72.652 16.8516 72.348 17.4965L70.5393 20.4896C70.4501 20.6316 70.3109 20.8774 70.1217 21.2271C69.9536 21.5806 69.8001 21.8464 69.6613 22.0247C69.6079 22.0828 69.5334 22.1372 69.4376 22.1878C69.3419 22.2384 69.2567 22.2909 69.1822 22.3453C69.3488 22.2622 69.5341 22.329 69.7381 22.5457C69.9633 22.7662 70.1775 23.0524 70.3808 23.4043C70.4919 23.7849 70.5446 24.1889 70.5388 24.6163C70.5543 25.0475 70.5671 25.2978 70.5773 25.3673C70.5613 25.7253 70.5599 25.9956 70.5731 26.1784C70.7106 26.9245 70.7831 27.6026 70.7905 28.2128C70.8016 28.8011 70.7626 29.4932 70.6735 30.2892C70.6056 31.0889 70.7026 31.8165 70.9644 32.472C71.0667 32.5128 71.1797 32.5554 71.3032 32.5999C71.448 32.6482 71.6033 32.6984 71.7693 32.7505C72.1048 32.8328 72.2909 33.0914 72.3275 33.5264C72.3414 33.574 72.3392 33.6525 72.3209 33.762C72.2808 34.0029 72.1364 34.214 71.8879 34.3953C71.5152 34.6672 71.085 34.7598 70.5974 34.673C70.237 34.6089 69.9037 34.4481 69.5974 34.1906C69.3123 33.9369 69.1229 33.6326 69.0293 33.2777C68.9386 33.0361 68.8819 32.7215 68.8592 32.3341C68.8678 31.366 68.8994 30.3907 68.9541 29.4082C69.092 28.0571 69.1646 27.0327 69.1718 26.3349C69.2039 25.619 69.1139 24.9152 68.9018 24.2235C68.8425 24.0551 68.776 23.9305 68.7021 23.8497C68.632 23.747 68.5227 23.6825 68.3743 23.6561C68.2471 23.6334 68.0826 23.638 67.8809 23.6697C67.5756 25.2391 67.2988 26.7683 67.0505 28.2576C66.8934 29.1993 66.6967 30.6414 66.4601 32.5838C66.4412 32.8284 66.3659 33.018 66.2343 33.1524C66.1276 33.2688 65.9394 33.4157 65.6697 33.5932Z" fill="#FEFEFF"/>
<path d="M76.3896 37.2136C75.8812 36.9729 75.488 36.579 75.2101 36.0319C74.9232 35.505 74.7684 34.8939 74.7455 34.1986C74.725 32.6977 74.9689 31.1875 75.4772 29.6681C75.9105 28.2109 76.4094 26.846 76.974 25.5732C77.0815 25.3307 77.1809 25.1333 77.2721 24.9809L77.5141 24.4354C77.5589 24.3344 77.5715 24.2793 77.552 24.27L77.7939 23.7245L78.7641 21.6171C79.0704 20.9798 79.6057 19.9865 80.3698 18.6371C80.8977 17.7136 81.5393 16.8806 82.2945 16.1381C82.6106 15.7988 82.9211 15.5791 83.2258 15.4789C83.5395 15.3585 83.8332 15.3631 84.107 15.4927C84.8892 15.863 85.526 16.3478 86.0174 16.9471C86.5177 17.5262 86.8665 18.1802 87.0638 18.9091C87.2309 19.5994 87.2855 20.3831 87.2278 21.2602C87.1789 22.1171 87.0295 22.9875 86.7795 23.8714C86.5204 24.7755 86.1803 25.7023 85.7592 26.6519L85.6516 26.8943C85.3739 27.5206 85.1327 28.0909 84.9283 28.6053L84.1914 30.3465C81.6107 36.1651 79.0101 38.4541 76.3896 37.2136ZM76.8368 35.8853C77.1888 36.0519 77.5742 36.0632 77.993 35.9192C78.4208 35.7551 78.8249 35.4575 79.2053 35.0264C80.0339 34.172 80.7516 33.1672 81.3586 32.0123C81.9133 31.0282 82.3565 30.1624 82.6881 29.4149C83.0913 28.5057 83.5516 27.2813 84.0688 25.7417C84.6415 24.1305 85.098 22.941 85.4386 22.1733L85.6805 21.6278C85.9819 20.8415 86.0234 20.0545 85.8049 19.2666C85.6061 18.488 85.1742 17.9413 84.5093 17.6265C83.8444 17.3118 83.2296 17.4974 82.665 18.1835C82.1917 18.7173 81.7355 19.4791 81.2964 20.4691C81.1261 20.8529 80.9925 21.1808 80.8956 21.4527L80.5327 22.271L79.8557 23.6372C79.6284 24.043 79.4028 24.4984 79.1788 25.0035C78.6949 26.0945 78.2448 27.1892 77.8285 28.2878C77.2347 29.8401 76.7761 31.4075 76.4528 32.99C76.1026 34.6332 76.2306 35.5983 76.8368 35.8853Z" fill="#FEFEFF"/>
<path d="M92.3965 51.6343C92.0323 51.111 92.0424 50.7067 92.4266 50.4213C92.5139 50.3564 92.6973 50.2202 92.9768 50.0126C93.2562 49.805 93.5307 49.6285 93.8004 49.483C94.4794 49.0881 95.2468 48.5729 96.1026 47.9372C96.9235 47.3274 98.0074 46.4676 99.3544 45.3576C100.115 44.7377 101.304 43.8 102.921 42.5444L107.142 39.2448L109.088 37.7583C109.367 37.5508 109.638 37.5964 109.899 37.8952C110.142 38.2071 110.243 38.5426 110.202 38.9018C110.16 39.261 109.991 39.5509 109.694 39.7715C109.257 40.0958 108.555 40.5902 107.587 41.2546L100.797 46.1745C100.558 46.3251 100.246 46.5431 99.8615 46.8285C99.4898 47.132 99.1206 47.4199 98.7538 47.6923L96.2387 49.5604C95.1133 50.3416 94.2277 51.0678 93.5821 51.739C93.3627 51.9567 93.1479 52.0478 92.9377 52.0123C92.7401 51.9949 92.5597 51.8688 92.3965 51.6343ZM87.9701 45.2738C87.7943 45.0212 87.6722 44.7697 87.604 44.5193C87.5357 44.269 87.6476 44.049 87.9396 43.8595C88.3664 43.5972 88.883 43.2545 89.4894 42.8315C90.0958 42.4085 90.5125 42.1126 90.7395 41.944C91.7351 41.2045 92.8018 40.4532 93.9398 39.69C94.3841 39.4148 95.0604 38.9399 95.9686 38.2653C96.4751 37.889 97.0714 37.4325 97.7574 36.8955C98.4435 36.3585 98.9549 35.9513 99.2917 35.6738C99.576 35.4352 99.9128 35.1577 100.302 34.8413C100.691 34.5249 101.13 34.185 101.619 33.8218C102.188 33.3446 102.638 32.9828 102.97 32.7363L103.632 32.2033C103.72 32.1384 103.894 32.0087 104.156 31.8141C104.436 31.6066 104.686 31.4895 104.905 31.463C105.138 31.4545 105.342 31.5765 105.518 31.8291C105.681 32.0637 105.723 32.3335 105.644 32.6386C105.583 32.9308 105.429 33.1676 105.185 33.3493C104.993 33.492 104.682 33.75 104.253 34.1234C103.475 34.7562 102.85 35.2478 102.378 35.5981C101.802 36.0262 101.203 36.4027 100.581 36.7276C100.451 36.7693 100.264 36.881 100.02 37.0626C99.8102 37.2183 99.5258 37.4569 99.1667 37.7784C99.2148 37.9617 99.3147 38.3527 99.4665 38.9516C99.6358 39.5375 99.7262 40.0862 99.7378 40.5977C99.7668 41.0962 99.7106 41.5485 99.5693 41.9545C99.0356 43.2815 98.4195 44.2045 97.7209 44.7234C96.638 45.5277 95.3764 46.3417 93.936 47.1652C93.0872 47.6588 92.3201 47.8317 91.6344 47.6841C90.9488 47.5364 90.1775 47.1514 89.3204 46.5289C89.0999 46.3643 88.8566 46.1481 88.5908 45.8802C88.3249 45.6124 88.118 45.4103 87.9701 45.2738ZM89.7615 44.7643C89.8772 45.0068 89.9728 45.1822 90.0481 45.2904C90.2993 45.6513 90.6287 45.8582 91.0365 45.9112C92.0698 46.1016 92.9969 45.892 93.8178 45.2823C94.6463 44.7216 95.3837 44.2013 96.0299 43.7213C97.1827 42.865 97.8622 42.2235 98.0684 41.7966C98.3648 41.3848 98.5121 40.8922 98.5104 40.3187C98.5087 39.7452 98.3907 39.1759 98.1564 38.6109C96.8285 39.4057 95.396 40.3739 93.859 41.5155C92.5491 42.4885 91.1833 43.5714 89.7615 44.7643Z" fill="#FEFEFF"/>
<path d="M94.8835 55.2891L96.0413 54.7787C96.3733 54.6187 96.7492 54.4527 97.1691 54.2806L98.2008 53.8936C98.3969 53.7415 100.527 52.6892 104.591 50.7367C108.654 48.7843 111.268 47.5456 112.432 47.0208C112.012 45.8063 111.839 44.9928 111.912 44.5803C111.984 44.2876 112.121 44.1002 112.321 44.0182C112.48 43.9527 112.66 43.9986 112.859 44.156C113.087 44.3259 113.244 44.5244 113.331 44.7516C113.553 45.33 113.783 46.0488 114.02 46.9078C114.222 47.7338 114.441 48.4566 114.679 49.0763L114.87 49.5721C115.116 50.2125 114.999 50.631 114.519 50.8277C114.279 50.926 114.039 50.9047 113.8 50.7637C113.581 50.6145 113.42 50.4056 113.316 50.1371C113.245 49.9511 113.172 49.6703 113.097 49.2945L112.979 48.6257L112.655 48.6866C110.876 49.416 108.104 50.7553 104.34 52.7045C100.807 54.5347 98.0316 55.8637 96.0121 56.6914C95.7721 56.7897 95.5186 56.7621 95.2513 56.6087C94.9921 56.4759 94.8109 56.2752 94.7077 56.0066L94.8835 55.2891Z" fill="#FEFEFF"/>
<path d="M96.8708 66.6479C96.7865 66.1443 96.7983 65.7588 96.9063 65.4914C97.0144 65.224 97.2698 65.0543 97.6725 64.9823C98.3084 64.8686 99.371 64.5659 100.861 64.0741L101.506 63.8234L101.438 60.4863C100.929 60.4421 99.9122 60.4321 98.3881 60.4564C97.3275 60.5107 96.6038 60.4258 96.2169 60.2017C96.0005 60.0826 95.8685 59.8806 95.8208 59.596C95.7768 59.3332 95.8106 59.079 95.9223 58.8335C96.0552 58.5842 96.2382 58.4388 96.4714 58.3971L96.6414 58.4344L96.7741 58.4445C102.464 58.916 108.02 59.0505 113.444 58.8478C113.529 58.8327 113.668 58.819 113.863 58.8068C114.078 58.7908 114.379 58.7596 114.764 58.7133C115.559 58.6389 116.196 58.5928 116.673 58.5751C117.154 58.5794 117.526 58.6482 117.788 58.7817L117.975 59.8985C118.026 60.2051 117.996 60.4812 117.885 60.7267C117.794 60.9684 117.622 61.112 117.367 61.1574C115.756 61.4454 113.4 62.1034 110.297 63.1316C107.106 64.153 104.854 64.7812 103.54 65.0161C103.413 65.0388 103.093 65.1523 102.582 65.3565C102.112 65.5532 101.804 65.6647 101.655 65.6912C101.507 65.7178 100.889 65.9409 99.8026 66.3607C98.8182 66.7397 98.1776 66.9556 97.8809 67.0087L97.8491 67.0144C97.3828 67.0977 97.0567 66.9756 96.8708 66.6479ZM102.612 63.3889C102.919 63.2663 103.306 63.1634 103.772 63.0801C105.68 62.7391 108.088 62.1282 110.997 61.2474L114.248 60.3279C109.11 60.2766 105.239 60.3031 102.637 60.4074C102.48 60.7738 102.472 61.7676 102.612 63.3889Z" fill="#FEFEFF"/>
</svg>
