<svg width="40" height="40" viewBox="0 0 40 40" fill="none" xmlns="http://www.w3.org/2000/svg">
<path d="M15.6155 28.0002C15.168 28.0002 14.7868 27.8429 14.472 27.5282C14.1573 27.2134 14 26.8322 14 26.3847V14.0002H13V13.0002H17V12.231H23V13.0002H27V14.0002H26V26.3847C26 26.845 25.8458 27.2294 25.5375 27.5377C25.2292 27.846 24.8448 28.0002 24.3845 28.0002H15.6155ZM25 14.0002H15V26.3847C15 26.5642 15.0577 26.7117 15.173 26.8272C15.2885 26.9425 15.436 27.0002 15.6155 27.0002H24.3845C24.5385 27.0002 24.6796 26.9361 24.8077 26.808C24.9359 26.6798 25 26.5387 25 26.3847V14.0002ZM17.8078 25.0002H18.8078V16.0002H17.8078V25.0002ZM21.1923 25.0002H22.1923V16.0002H21.1923V25.0002Z" fill="#3A3A3E"/>
</svg>
