<svg width="40" height="40" viewBox="0 0 40 40" fill="none" xmlns="http://www.w3.org/2000/svg">
<path d="M13 27H14.098L24.7962 16.302L23.698 15.2038L13 25.902V27ZM12 28V25.4808L25.1807 12.2865C25.2832 12.1952 25.3963 12.1246 25.52 12.0747C25.6438 12.0249 25.7729 12 25.9072 12C26.0416 12 26.1717 12.0212 26.2977 12.0635C26.4236 12.1058 26.5397 12.1821 26.6462 12.2923L27.7135 13.3655C27.8237 13.4718 27.899 13.5885 27.9395 13.7155C27.9798 13.8427 28 13.9697 28 14.0968C28 14.2322 27.9772 14.3619 27.9315 14.4857C27.8858 14.6094 27.8132 14.7225 27.7135 14.825L14.5192 28H12ZM24.2375 15.7625L23.698 15.2038L24.7962 16.302L24.2375 15.7625Z" fill="#3A3A3E"/>
</svg>
